<?xml version="1.0" standalone="no"?><!DOCTYPE svg PUBLIC "-//W3C//DTD SVG 1.1//EN" "http://www.w3.org/Graphics/SVG/1.1/DTD/svg11.dtd"><svg t="1650263666316" class="icon" viewBox="0 0 1024 1024" version="1.1" xmlns="http://www.w3.org/2000/svg" p-id="2703" xmlns:xlink="http://www.w3.org/1999/xlink" width="32" height="32"><defs><style type="text/css"></style></defs><path d="M457.728 268.288m-161.792 0a161.792 161.792 0 1 0 323.584 0 161.792 161.792 0 1 0-323.584 0Z" p-id="2704"></path><path d="M449.024 786.944c-49.664-29.184-82.432-77.312-82.432-132.096 0-89.088 87.04-161.792 194.56-161.792 4.608 0 8.704 0 13.312 0.512-36.352-14.336-75.264-22.016-116.736-22.016-177.152 0-321.024 143.872-321.024 321.024h309.76l2.56-5.632zM886.784 771.072c0-68.608-67.072-124.416-149.504-124.416s-149.504 55.808-149.504 124.416 67.072 124.416 149.504 124.416c18.432 0 35.84-2.56 51.712-7.68l53.248 29.696-18.944-44.544c38.4-23.04 63.488-59.904 63.488-101.888z m-202.752-24.064c-10.752 0-19.456-8.704-19.456-19.456s8.704-19.456 19.456-19.456c10.752 0 19.456 8.704 19.456 19.456s-8.704 19.456-19.456 19.456z m104.448 0c-10.752 0-19.456-8.704-19.456-19.456s8.704-19.456 19.456-19.456c10.752 0 19.456 8.704 19.456 19.456s-8.704 19.456-19.456 19.456z" p-id="2705"></path><path d="M736.256 630.784c-15.872-67.584-87.552-118.784-173.568-118.784-97.792 0-176.64 65.536-176.64 146.944 0 49.664 29.696 93.184 74.752 119.808l-22.016 52.736 62.976-34.816c18.944 5.632 39.936 9.216 61.44 9.216 4.608 0 8.704 0 12.8-0.512-3.072-10.24-4.096-20.992-4.096-32.256-0.512-76.8 72.704-139.264 164.352-142.336z m-110.08-46.08c12.8 0 23.04 10.24 23.04 23.04s-10.24 23.04-23.04 23.04-23.04-10.24-23.04-23.04 10.24-23.04 23.04-23.04z m-123.904 45.568c-12.8 0-23.04-10.24-23.04-23.04s10.24-23.04 23.04-23.04 23.04 10.24 23.04 23.04-10.24 23.04-23.04 23.04z" p-id="2706"></path></svg>