<?xml version="1.0" standalone="no"?><!DOCTYPE svg PUBLIC "-//W3C//DTD SVG 1.1//EN" "http://www.w3.org/Graphics/SVG/1.1/DTD/svg11.dtd"><svg t="1710206652218" class="icon" viewBox="0 0 1024 1024" version="1.1" xmlns="http://www.w3.org/2000/svg" p-id="18000" xmlns:xlink="http://www.w3.org/1999/xlink" width="32" height="32"><path d="M904 176v112H120V176h784m0-56H120c-30.9 0-56 25.1-56 56v112c0 30.9 25.1 56 56 56h784c30.9 0 56-25.1 56-56V176c0-30.9-25.1-56-56-56z" fill="#000000" p-id="18001"></path><path d="M820 232m-28 0a28 28 0 1 0 56 0 28 28 0 1 0-56 0Z" fill="#000000" p-id="18002"></path><path d="M708 232m-28 0a28 28 0 1 0 56 0 28 28 0 1 0-56 0Z" fill="#000000" p-id="18003"></path><path d="M904 456v112H120V456h784m0-56H120c-30.9 0-56 25.1-56 56v112c0 30.9 25.1 56 56 56h784c30.9 0 56-25.1 56-56V456c0-30.9-25.1-56-56-56z" fill="#000000" p-id="18004"></path><path d="M820 512m-28 0a28 28 0 1 0 56 0 28 28 0 1 0-56 0Z" fill="#000000" p-id="18005"></path><path d="M596 232m-28 0a28 28 0 1 0 56 0 28 28 0 1 0-56 0Z" fill="#000000" p-id="18006"></path><path d="M596 792m-28 0a28 28 0 1 0 56 0 28 28 0 1 0-56 0Z" fill="#000000" p-id="18007"></path><path d="M708 512m-28 0a28 28 0 1 0 56 0 28 28 0 1 0-56 0Z" fill="#000000" p-id="18008"></path><path d="M904 736v112H120V736h784m0-56H120c-30.9 0-56 25.1-56 56v112c0 30.9 25.1 56 56 56h784c30.9 0 56-25.1 56-56V736c0-30.9-25.1-56-56-56z" fill="#000000" p-id="18009"></path><path d="M820 792m-28 0a28 28 0 1 0 56 0 28 28 0 1 0-56 0Z" fill="#000000" p-id="18010"></path><path d="M708 792m-28 0a28 28 0 1 0 56 0 28 28 0 1 0-56 0Z" fill="#000000" p-id="18011"></path></svg>