<?xml version="1.0" standalone="no"?><!DOCTYPE svg PUBLIC "-//W3C//DTD SVG 1.1//EN" "http://www.w3.org/Graphics/SVG/1.1/DTD/svg11.dtd"><svg t="1710206178109" class="icon" viewBox="0 0 1024 1024" version="1.1" xmlns="http://www.w3.org/2000/svg" p-id="10231" xmlns:xlink="http://www.w3.org/1999/xlink" width="48" height="48"><path d="M664.132267 0H110.933333v1024h802.133334V248.9344L664.132267 0z m10.001066 58.2656L854.801067 238.933333H674.133333V58.2656zM145.066667 989.866667V34.133333h494.933333v238.933334h238.933333v716.8h-733.866666z" fill="" p-id="10232"></path><path d="M281.6 290.133333h153.6a17.066667 17.066667 0 1 0 0-34.133333h-153.6a17.066667 17.066667 0 1 0 0 34.133333zM571.733333 631.466667h-290.133333a17.066667 17.066667 0 1 0 0 34.133333h290.133333a17.066667 17.066667 0 1 0 0-34.133333zM742.4 512h-119.466667a17.066667 17.066667 0 1 0 0 34.133333h119.466667a17.066667 17.066667 0 1 0 0-34.133333zM281.6 426.666667h85.333333a17.066667 17.066667 0 1 0 0-34.133334h-85.333333a17.066667 17.066667 0 1 0 0 34.133334zM537.6 426.666667h119.466667a17.066667 17.066667 0 1 0 0-34.133334h-119.466667a17.066667 17.066667 0 1 0 0 34.133334zM435.2 409.6c0 4.437333 1.877333 8.874667 4.949333 12.117333 3.242667 3.072 7.68 4.949333 12.117334 4.949334 4.437333 0 8.874667-1.877333 12.117333-4.949334 3.072-3.242667 4.949333-7.68 4.949333-12.117333 0-4.4544-1.877333-8.891733-4.949333-12.117333-6.314667-6.314667-17.749333-6.314667-24.234667 0-3.072 3.2256-4.949333 7.662933-4.949333 12.117333zM366.933333 512a17.066667 17.066667 0 1 0 0 34.133333h170.666667a17.066667 17.066667 0 1 0 0-34.133333h-170.666667zM281.6 546.133333c4.437333 0 8.874667-1.877333 12.117333-4.949333 3.072-3.242667 4.949333-7.68 4.949334-12.117333 0-4.4544-1.877333-8.891733-4.949334-12.117334-6.314667-6.314667-17.92-6.314667-24.234666 0-3.072 3.2256-4.949333 7.492267-4.949334 12.117334 0 4.437333 1.877333 8.874667 4.949334 12.117333 3.242667 3.072 7.68 4.949333 12.117333 4.949333zM742.4 750.933333h-119.466667a17.066667 17.066667 0 1 0 0 34.133334h119.466667a17.066667 17.066667 0 1 0 0-34.133334zM537.6 750.933333h-170.666667a17.066667 17.066667 0 1 0 0 34.133334h170.666667a17.066667 17.066667 0 1 0 0-34.133334zM269.482667 755.882667a17.288533 17.288533 0 0 0 0 24.234666c3.242667 3.072 7.68 4.949333 12.117333 4.949334 4.608 0 8.874667-1.877333 12.117333-4.949334 3.072-3.242667 4.949333-7.68 4.949334-12.117333a16.8448 16.8448 0 0 0-4.949334-11.946667c-6.314667-6.485333-17.749333-6.485333-24.234666-0.170666zM730.282667 397.482667c-3.072 3.2256-4.949333 7.662933-4.949334 12.117333 0 4.437333 1.877333 8.874667 4.949334 12.117333 3.242667 3.072 7.68 4.949333 12.117333 4.949334 4.437333 0 8.874667-1.877333 12.117333-4.949334 3.242667-3.242667 4.949333-7.68 4.949334-12.117333 0-4.4544-1.706667-8.891733-4.949334-12.117333-6.485333-6.314667-17.749333-6.314667-24.234666 0zM669.184 660.650667c3.072-3.242667 4.949333-7.68 4.949333-12.117334 0-4.4544-1.877333-8.891733-4.949333-12.117333-6.485333-6.314667-17.92-6.314667-24.234667 0-3.072 3.2256-4.949333 7.662933-4.949333 12.117333 0 4.437333 1.877333 8.874667 4.949333 12.117334 3.242667 3.2256 7.509333 4.949333 12.117334 4.949333s8.874667-1.877333 12.117333-4.949333zM730.282667 636.416c-3.072 3.2256-4.949333 7.662933-4.949334 12.117333 0 4.437333 1.877333 8.874667 4.949334 12.117334 3.242667 3.072 7.509333 4.949333 12.117333 4.949333s8.874667-1.877333 12.117333-4.949333c3.072-3.242667 4.949333-7.68 4.949334-12.117334 0-4.4544-1.877333-8.891733-4.949334-12.117333-6.314667-6.314667-17.92-6.314667-24.234666 0z" fill="" p-id="10233"></path></svg>